<svg xmlns="http://www.w3.org/2000/svg" xmlns:xlink="http://www.w3.org/1999/xlink" viewBox="0 0 267.61 77.02"><defs><style>.a{fill:none;}.b{clip-path:url(#a);}.c{fill:#e8b909;}.d{fill:#003963;}.e{fill:#fff;}</style><clipPath id="a"><rect class="a" width="267.61" height="77.02"/></clipPath></defs><title>BMV_logo</title><g class="b"><g class="b"><path class="c" d="M7.32,73.67c.79,1.14,1.13,1.2,2.08.73.34-.16.87-.37,1.12-.24,1.23.63,2.41,1.36,3.59,2.08A7.31,7.31,0,0,1,15,77a13,13,0,0,0,.85-1.24c.22-.39.23-1,.55-1.22a27.16,27.16,0,0,1,2.79-1.5c.7.51.35,2.45,2.31,1.58v1.6l1.93-2.09c.27-.27.16-.71.23-1.12s.26-.85.5-.9c1.12-.26.73-.85.46-1.27l2.27-.65-1.08-.69.44-.27c.28.51.76,1,.8,1.54.08,1.12.78,1.58,1.73,1.91l2.09.73s.2-.47.42-.5c1.44-.19,1.27-1.33,1.36-2.17.19-1.85.74-2.49,2.54-2.85a2.14,2.14,0,0,0,1.1-1c.26-.43.22-1,.47-1.46a4.62,4.62,0,0,1,1.07-1.14,10.65,10.65,0,0,1,1.61-1.14c1-.56.34-1.2.18-1.83a2.12,2.12,0,0,1-.06-.83c.07-.49.15-1.38.31-1.4,1-.11,2.28-.37,2.8.1a1.25,1.25,0,0,0,2,0,5.62,5.62,0,0,1,4-1.27c.17-.6.32-1.11.48-1.69-1-.15-1.57-.51-.66-1.48.13-.15,0-.7-.24-.94-.52-.62-.55-1,.18-1.56A1.74,1.74,0,0,0,49,51q.15-24.81.26-49.62C49.28.34,49,0,47.83,0Q34.41.08,21,0A6.38,6.38,0,0,0,17.61,1c-1.94,1.12-3.95,2.4-6.41,1.66A11.31,11.31,0,0,1,8.73,1.11a1.92,1.92,0,0,0-.09.34Q8.51,23.77,8.39,46.1c0,.6,0,1.09-.66,1.47a1.34,1.34,0,0,0-.24,1.37c.49.74.2,1.14-.34,1.61s-.62.86-.12,1.51A18.88,18.88,0,0,1,8.64,54.9a.66.66,0,0,1,0,.58,2.49,2.49,0,0,0,.1,2.31,1.71,1.71,0,0,1-.91,2.45c-.33.15-.44.7-.71,1-.71.88-.15,2.52-1.39,2.67C5,65.3,4.36,66.38,3.76,67.46A1.33,1.33,0,0,0,2,69.26c.71,1.2.4,2.2-.84,2.66v2.91L0,74.69,1,76l-.89.28a5.18,5.18,0,0,0,1.1.58c.43.09,1.09.22,1.29,0s.2-.85.25-1.3,0-.69.06-1l.24-.3c.84,1.63,2,1.18,3.05.69l.39,1.29a3.06,3.06,0,0,0,1-.28c.56-.44.34-.87-.12-1.29-.11-.1,0-.39,0-.93"/><path class="c" d="M7.32,73.67c0,.54-.1.83,0,.93.46.42.68.85.12,1.29a3.06,3.06,0,0,1-1,.28l-.39-1.29c-1,.49-2.21.94-3-.69l-.24.3c0,.35,0,.7-.06,1s0,1-.25,1.3-.86.07-1.29,0a5.18,5.18,0,0,1-1.1-.58L1,76,0,74.69l1.11.14V71.92c1.24-.46,1.55-1.46.84-2.66a1.33,1.33,0,0,1,1.81-1.8C4.36,66.38,5,65.3,5.7,63.93c1.24-.15.68-1.79,1.39-2.67.27-.32.38-.87.71-1a1.71,1.71,0,0,0,.91-2.45,2.49,2.49,0,0,1-.1-2.31.66.66,0,0,0,0-.58A18.88,18.88,0,0,0,7,52.06c-.5-.65-.41-1.06.12-1.51s.83-.87.34-1.61a1.34,1.34,0,0,1,.24-1.37c.71-.38.66-.87.66-1.47q.11-22.33.25-44.65a1.92,1.92,0,0,1,.09-.34A11.31,11.31,0,0,0,11.2,2.62c2.46.74,4.47-.54,6.41-1.66A6.38,6.38,0,0,1,21,0q13.43,0,26.84,0C49,0,49.28.34,49.27,1.4Q49.12,26.21,49,51a1.74,1.74,0,0,1-.61,1.27c-.73.52-.7.94-.18,1.56.2.24.37.79.24.94-.91,1-.37,1.33.66,1.48-.16.58-.31,1.09-.48,1.69a5.62,5.62,0,0,0-4,1.27,1.25,1.25,0,0,1-2,0c-.52-.47-1.85-.21-2.8-.1-.16,0-.24.91-.31,1.4a2.12,2.12,0,0,0,.06.83c.16.63.85,1.27-.18,1.83a10.65,10.65,0,0,0-1.61,1.14,4.62,4.62,0,0,0-1.07,1.14c-.25.44-.21,1-.47,1.46a2.14,2.14,0,0,1-1.1,1c-1.8.36-2.35,1-2.54,2.85-.09.84.08,2-1.36,2.17-.22,0-.38.46-.42.5l-2.09-.73c-1-.33-1.65-.79-1.73-1.91,0-.53-.52-1-.8-1.54l-.44.27,1.08.69-2.27.65c.27.42.66,1-.46,1.27-.24.05-.45.57-.5.9s0,.85-.23,1.12L21.5,76.24v-1.6c-2,.87-1.61-1.07-2.31-1.58a27.16,27.16,0,0,0-2.79,1.5c-.32.22-.33.83-.55,1.22A13,13,0,0,1,15,77a7.31,7.31,0,0,0-.89-.78c-1.18-.72-2.36-1.45-3.59-2.08-.25-.13-.78.08-1.12.24-1,.47-1.29.41-2.08-.73"/><path class="d" d="M42.28,31.09A12.82,12.82,0,1,1,29.46,18.27,12.82,12.82,0,0,1,42.28,31.09"/><path class="d" d="M29.46,18.27A12.82,12.82,0,1,1,16.64,31.09,12.82,12.82,0,0,1,29.46,18.27m0-.68A13.5,13.5,0,1,0,43,31.09a13.52,13.52,0,0,0-13.49-13.5"/><path class="e" d="M38.1,26.21a39.22,39.22,0,0,0-7.73,3.56,2.38,2.38,0,0,1-.85.07c.15-.2.28-.3.29-.4a.93.93,0,0,0-.09-.53c-.07-.09-.3-.1-.45-.07a1.7,1.7,0,0,0-.59.25,2,2,0,0,1-1.62.18c-1.74-.38-3.49-.7-5.22-1.08-.55-.12-.92.23-1.48.36,1.79.85,6.38,2.89,6.76,3.21l-.61.4a7.84,7.84,0,0,0-.74.48.88.88,0,0,1-1.08.09c-.62-.38-1.22-.8-1.81-1.22-.24-.17-.44-.39-.67-.59l-.77.44c.34,1,.67,1.94,1,3A11.19,11.19,0,0,1,21.21,34a.92.92,0,0,0-1.19.31l1.67.83a.47.47,0,0,1,.33.42c.06.44.24.55.69.56a1.11,1.11,0,0,1,.56.17c.38.26.74.56,1.12.84l.92-.48-.23-.91.53-.15a29.67,29.67,0,0,0,4.94-1.86.5.5,0,0,1,.59,0c.35.26,3.81,2.55,4.61,3.08l.91-.55c-.36-.81-.73-1.61-1.1-2.44l.39-.33a.49.49,0,0,0,.13-.67c-.16-.26-.38-.24-.63-.12l-.34.14c-.19-.42-.37-.83-.56-1.24l2.83-2a20.49,20.49,0,0,0,3.11-2.7v-.34a.89.89,0,0,0-.76-.25,6.65,6.65,0,0,1-1.08-.09Z"/><path class="e" d="M62.94,37.94V0H79.06c4.06,0,7,.34,8.84,1a8.7,8.7,0,0,1,4.41,3.64,10.87,10.87,0,0,1,1.66,6,10.16,10.16,0,0,1-2.51,7.05c-1.67,1.85-4.18,3-7.51,3.5a17.89,17.89,0,0,1,4.11,3.19,43.71,43.71,0,0,1,4.36,6.16l4.63,7.4H87.89l-5.54-8.26a51.86,51.86,0,0,0-4-5.57A5.78,5.78,0,0,0,76,22.53a12.46,12.46,0,0,0-3.86-.43H70.6V37.94ZM70.6,16h5.67c3.67,0,6-.15,6.88-.46A4.12,4.12,0,0,0,85.3,14a4.88,4.88,0,0,0,.78-2.84,4.53,4.53,0,0,0-1-3.1,4.66,4.66,0,0,0-2.88-1.48c-.62-.09-2.49-.13-5.59-.13h-6Z"/><polygon class="e" points="101.19 37.94 101.19 0 129.32 0 129.32 6.42 108.85 6.42 108.85 14.83 127.9 14.83 127.9 21.22 108.85 21.22 108.85 31.55 130.04 31.55 130.04 37.94 101.19 37.94"/><path class="e" d="M170.75,37.94h-8.33l-3.31-8.62H143.94l-3.13,8.62h-8.13L147.46,0h8.1Zm-14.1-15L151.42,8.85l-5.13,14.08Z"/><polygon class="e" points="175.02 37.94 175.02 0.31 182.68 0.31 182.68 31.55 201.73 31.55 201.73 37.94 175.02 37.94"/><rect class="c" x="220.72" width="7.66" height="37.94"/><path class="c" d="M235.66,0h14a27.56,27.56,0,0,1,7.22.72,12.64,12.64,0,0,1,5.71,3.5,16.55,16.55,0,0,1,3.63,6.14,28,28,0,0,1,1.24,9,25.16,25.16,0,0,1-1.16,8.08,16.75,16.75,0,0,1-4.07,6.7,13.58,13.58,0,0,1-5.38,3,23.34,23.34,0,0,1-6.78.8H235.66Zm7.66,6.42V31.55H249a20.33,20.33,0,0,0,4.64-.37,7.08,7.08,0,0,0,3.09-1.57,8,8,0,0,0,2-3.67,24.62,24.62,0,0,0,.78-7,22.55,22.55,0,0,0-.78-6.75,8.6,8.6,0,0,0-2.17-3.67,7.27,7.27,0,0,0-3.54-1.79,35,35,0,0,0-6.29-.36Z"/><polygon class="e" points="65.85 57.39 63.12 45.94 65.48 45.94 67.21 53.8 69.3 45.94 72.05 45.94 74.06 53.94 75.82 45.94 78.15 45.94 75.37 57.39 72.91 57.39 70.63 48.83 68.36 57.39 65.85 57.39"/><rect class="e" x="79.22" y="45.94" width="2.31" height="11.45"/><polygon class="e" points="83.77 57.39 83.77 46.03 86.08 46.03 86.08 55.46 91.83 55.46 91.83 57.39 83.77 57.39"/><polygon class="e" points="93.51 57.39 93.51 46.03 95.83 46.03 95.83 55.46 101.58 55.46 101.58 57.39 93.51 57.39"/><polygon class="e" points="110.03 57.39 110.03 52.57 105.84 45.94 108.55 45.94 111.25 50.47 113.89 45.94 116.55 45.94 112.34 52.58 112.34 57.39 110.03 57.39"/><path class="e" d="M117.2,51.73a7.25,7.25,0,0,1,.52-2.93,5.45,5.45,0,0,1,1.07-1.58,4.55,4.55,0,0,1,1.48-1,6.29,6.29,0,0,1,2.47-.45,5.39,5.39,0,0,1,4.05,1.57,6,6,0,0,1,1.52,4.37A6,6,0,0,1,126.8,56a6,6,0,0,1-8.09,0,5.9,5.9,0,0,1-1.51-4.3m2.38-.08a4.28,4.28,0,0,0,.9,3,2.93,2.93,0,0,0,2.28,1,2.89,2.89,0,0,0,2.27-1,4.38,4.38,0,0,0,.89-3,4.26,4.26,0,0,0-.87-2.93,3.19,3.19,0,0,0-4.59,0,4.28,4.28,0,0,0-.88,2.95"/><path class="e" d="M130.06,45.94h2.32v6.2a12.74,12.74,0,0,0,.08,1.91,1.86,1.86,0,0,0,.71,1.13,2.42,2.42,0,0,0,1.53.43,2.37,2.37,0,0,0,1.48-.4,1.62,1.62,0,0,0,.6-1,12.67,12.67,0,0,0,.1-1.95V45.94h2.32v6a15.9,15.9,0,0,1-.19,2.92,3.35,3.35,0,0,1-.69,1.43,3.67,3.67,0,0,1-1.35.94,5.91,5.91,0,0,1-2.2.34,6.39,6.39,0,0,1-2.49-.37,3.66,3.66,0,0,1-1.34-1,3.08,3.08,0,0,1-.65-1.27,13.94,13.94,0,0,1-.23-2.91Z"/><path class="e" d="M141.61,57.39V45.94h4.87a8.61,8.61,0,0,1,2.67.3,2.73,2.73,0,0,1,1.33,1.1,3.35,3.35,0,0,1,.5,1.81,3.09,3.09,0,0,1-.76,2.13,3.62,3.62,0,0,1-2.27,1,5.51,5.51,0,0,1,1.24,1,11.85,11.85,0,0,1,1.32,1.85l1.4,2.24h-2.77l-1.67-2.49a16.73,16.73,0,0,0-1.22-1.69,1.74,1.74,0,0,0-.69-.47,3.75,3.75,0,0,0-1.17-.13h-.47v4.78Zm2.31-6.61h1.71a9.05,9.05,0,0,0,2.08-.14,1.23,1.23,0,0,0,.65-.49,1.4,1.4,0,0,0-1-2.24c-.18,0-.75,0-1.68,0h-1.81Z"/><polygon class="e" points="157.6 57.39 157.6 46.03 159.91 46.03 159.91 55.46 165.66 55.46 165.66 57.39 157.6 57.39"/><rect class="e" x="167.21" y="45.94" width="2.31" height="11.45"/><path class="e" d="M179,53.18l2.24.71a5,5,0,0,1-1.71,2.78,5.4,5.4,0,0,1-6.79-.64,6,6,0,0,1-1.47-4.27,6.29,6.29,0,0,1,1.47-4.44,5.09,5.09,0,0,1,3.89-1.58A4.74,4.74,0,0,1,180.06,47a4.56,4.56,0,0,1,1.17,2.11l-2.29.55a2.4,2.4,0,0,0-.84-1.41,2.47,2.47,0,0,0-1.57-.51,2.61,2.61,0,0,0-2.07.91,4.48,4.48,0,0,0-.79,3,4.84,4.84,0,0,0,.78,3.1,2.55,2.55,0,0,0,2,.92,2.32,2.32,0,0,0,1.59-.59,3.38,3.38,0,0,0,1-1.84"/><polygon class="e" points="183.22 57.39 183.22 45.94 191.71 45.94 191.71 47.87 185.53 47.87 185.53 50.41 191.28 50.41 191.28 52.34 185.53 52.34 185.53 55.46 191.93 55.46 191.93 57.39 183.22 57.39"/><polygon class="e" points="193.88 57.39 193.88 45.94 196.13 45.94 200.81 53.58 200.81 45.94 202.96 45.94 202.96 57.39 200.64 57.39 196.03 49.92 196.03 57.39 193.88 57.39"/><path class="e" d="M204.79,53.66l2.25-.22a2.76,2.76,0,0,0,.83,1.67,2.5,2.5,0,0,0,1.67.53,2.62,2.62,0,0,0,1.69-.47,1.44,1.44,0,0,0,.56-1.11,1,1,0,0,0-.24-.69,1.87,1.87,0,0,0-.83-.5c-.27-.09-.89-.26-1.85-.5a6.17,6.17,0,0,1-2.61-1.13,3,3,0,0,1-1-2.31,2.94,2.94,0,0,1,.49-1.63,3.07,3.07,0,0,1,1.43-1.16,5.68,5.68,0,0,1,2.26-.4,4.89,4.89,0,0,1,3.24.94,3.37,3.37,0,0,1,1.15,2.53l-2.32.1a2,2,0,0,0-.63-1.27,2.34,2.34,0,0,0-1.47-.39,2.62,2.62,0,0,0-1.58.42.83.83,0,0,0-.36.71.86.86,0,0,0,.34.69,6,6,0,0,0,2.13.77,11.74,11.74,0,0,1,2.49.82,3.34,3.34,0,0,1,1.27,1.17,3.65,3.65,0,0,1-.09,3.67A3.31,3.31,0,0,1,212,57.17a6.48,6.48,0,0,1-2.49.42,5,5,0,0,1-3.34-1,4.4,4.4,0,0,1-1.39-2.93"/><polygon class="e" points="216.02 57.39 216.02 45.94 224.51 45.94 224.51 47.87 218.33 47.87 218.33 50.41 224.08 50.41 224.08 52.34 218.33 52.34 218.33 55.46 224.73 55.46 224.73 57.39 216.02 57.39"/><polygon class="e" points="231.09 57.39 231.09 45.94 238.94 45.94 238.94 47.87 233.4 47.87 233.4 50.58 238.18 50.58 238.18 52.52 233.4 52.52 233.4 57.39 231.09 57.39"/><polygon class="e" points="240.88 57.39 240.88 46.03 243.19 46.03 243.19 55.46 248.94 55.46 248.94 57.39 240.88 57.39"/><polygon class="e" points="252.09 57.39 252.09 52.57 247.9 45.94 250.61 45.94 253.3 50.47 255.94 45.94 258.61 45.94 254.4 52.58 254.4 57.39 252.09 57.39"/><path class="e" d="M264.43,54.44h-2c0-.29,0-.47,0-.53a3.54,3.54,0,0,1,.32-1.59A4.76,4.76,0,0,1,264,50.91a10.37,10.37,0,0,0,1.15-1,1.4,1.4,0,0,0,.29-.84A1.42,1.42,0,0,0,265,48a2,2,0,0,0-1.38-.46,2.07,2.07,0,0,0-1.4.48,2.54,2.54,0,0,0-.78,1.45l-2-.25a3.33,3.33,0,0,1,1.19-2.37,4.19,4.19,0,0,1,2.9-1,4.37,4.37,0,0,1,3,1,3,3,0,0,1,1.12,2.3,2.55,2.55,0,0,1-.41,1.37,9.07,9.07,0,0,1-1.76,1.77,3.2,3.2,0,0,0-.86.93,3.15,3.15,0,0,0-.15,1.26m-2,.75h2.19v2.2h-2.19Z"/></g></g></svg>